HIERARCHY
ROOT Hips
{
	OFFSET 0.00 0.00 0.00
	CHANNELS 6 Xposition Yposition Zposition Xrotation Yrotation Zrotation
	JOINT Spine
	{
		OFFSET 0.00000 1.15266 1.72900
		CHANNELS 3 Xrotation Yrotation Zrotation
		JOINT Spine1
		{
			OFFSET 0.00000 0.40032 2.27031
			CHANNELS 3 Xrotation Yrotation Zrotation
			JOINT Spine2
			{
				OFFSET 0.00000 0.20092 2.29656
				CHANNELS 3 Xrotation Yrotation Zrotation
				JOINT Spine3
				{
					OFFSET 0.00000 0.00000 2.30533
					CHANNELS 3 Xrotation Yrotation Zrotation
					JOINT Neck
					{
						OFFSET 0.00000 -0.86449 6.05149
						CHANNELS 3 Xrotation Yrotation Zrotation
						JOINT Head
						{
							OFFSET 0.00000 -0.55043 3.12167
							CHANNELS 3 Xrotation Yrotation Zrotation
							End Site
							{
								OFFSET 0.00000 0.00000 3.73175
							}
						}
					}
					JOINT RightShoulder
					{
						OFFSET -0.78828 -1.31380 4.25672
						CHANNELS 3 Xrotation Yrotation Zrotation
						JOINT RightArm
						{
							OFFSET -3.91513 0.00000 0.00000
							CHANNELS 3 Xrotation Yrotation Zrotation
							JOINT RightForeArm
							{
								OFFSET -6.91491 0.00000 0.00000
								CHANNELS 3 Xrotation Yrotation Zrotation
								JOINT RightHand
								{
									OFFSET -6.09622 0.00000 0.00000
									CHANNELS 3 Xrotation Yrotation Zrotation
									JOINT RightHandEnd
									{
										OFFSET -1.74995 0.00000 0.00000
										CHANNELS 3 Xrotation Yrotation Zrotation
										End Site
										{
											OFFSET -1.74995 0.00000 0.00000
										}
									}
									JOINT RightHandThumb1
									{
										OFFSET -0.69998 -1.16663 -0.46665
										CHANNELS 3 Yrotation Xrotation Zrotation
										End Site
										{
											OFFSET -1.69032 -0.45292 0.00000
										}
									}
								}
							}
						}
					}
					JOINT LeftShoulder
					{
						OFFSET 0.78828 -1.31380 4.25672
						CHANNELS 3 Xrotation Yrotation Zrotation
						JOINT LeftArm
						{
							OFFSET 3.91513 0.00000 0.00000
							CHANNELS 3 Xrotation Yrotation Zrotation
							JOINT LeftForeArm
							{
								OFFSET 6.91491 0.00000 0.00000
								CHANNELS 3 Xrotation Yrotation Zrotation
								JOINT LeftHand
								{
									OFFSET 6.09622 0.00000 0.00000
									CHANNELS 3 Xrotation Yrotation Zrotation
									JOINT LeftHandEnd
									{
										OFFSET 1.74995 0.00000 0.00000
										CHANNELS 3 Xrotation Yrotation Zrotation
										End Site
										{
											OFFSET 1.74995 0.00000 0.00000
										}
									}
									JOINT LeftHandThumb1
									{
										OFFSET 0.69998 -1.16663 -0.46665
										CHANNELS 3 Yrotation Xrotation Zrotation
										End Site
										{
											OFFSET 1.69032 -0.45292 0.00000
										}
									}
								}
							}
						}
					}
				}
			}
		}
	}
	JOINT RightUpLeg
	{
		OFFSET -2.33857 0.00000 -0.68318
		CHANNELS 3 Xrotation Yrotation Zrotation
		JOINT RightLeg
		{
			OFFSET 0.00000 0.00000 -10.74496
			CHANNELS 3 Xrotation Yrotation Zrotation
			JOINT RightFoot
			{
				OFFSET 0.00000 0.00000 -10.93085
				CHANNELS 3 Xrotation Yrotation Zrotation
				JOINT RightToeBase
				{
					OFFSET 0.00000 -4.08727 -1.48765
					CHANNELS 3 Xrotation Yrotation Zrotation
					End Site
					{
						OFFSET 0.00000 -1.89187 -0.00000
					}
				}
			}
		}
	}
	JOINT LeftUpLeg
	{
		OFFSET 2.33857 0.00000 -0.68318
		CHANNELS 3 Xrotation Yrotation Zrotation
		JOINT LeftLeg
		{
			OFFSET 0.00000 0.00000 -10.74496
			CHANNELS 3 Xrotation Yrotation Zrotation
			JOINT LeftFoot
			{
				OFFSET 0.00000 0.00000 -10.93085
				CHANNELS 3 Xrotation Yrotation Zrotation
				JOINT LeftToeBase
				{
					OFFSET 0.00000 -4.08727 -1.48765
					CHANNELS 3 Xrotation Yrotation Zrotation
					End Site
					{
						OFFSET 0.00000 -1.89187 -0.00000
					}
				}
			}
		}
	}
}
MOTION
Frames: 10
Frame Time:	0.05
 -0.8404 -0.8571 25.0458 -7.1342 2.1126 160.4620 -0.4310 -1.1035 0.5036 -0.3195 -2.6643 0.0603 0.2662 2.5911 9.4068 -0.1476 0.8662 1.2719 -4.9597 4.9046 -11.9604 4.5951 1.0839 -17.0929 -10.2127 6.2949 -8.6877 -4.5709 2.1408 8.0648 0.0000 0.0000 14.9576 -6.3429 1.6710 -10.8868 0.0000 0.0000 0.0000 0.0000 -0.0000 0.0000 -8.8331 -4.5628 6.1980 -19.0734 3.1380 -14.2543 -0.0000 0.0000 4.5356 3.1202 7.1060 6.3372 -0.0000 0.0000 -0.0000 0.0000 -0.0000 -0.0000 -9.6675 -3.4392 -7.5796 2.2081 0.0000 0.0000 -0.0201 0.8641 25.6274 4.3753 0.0000 0.0000 -7.1070 -1.8132 9.0931 1.6842 0.0000 0.0000 -5.0104 3.1696 1.7314 -2.6630 0.0000 -0.0000
 -0.7892 -0.8846 25.0451 -7.2203 2.1786 160.5198 -0.4217 -1.1140 0.5068 -0.3197 -2.6711 0.0662 0.2788 2.6571 9.4117 -0.1489 0.9050 1.2514 -4.9800 4.9643 -11.9462 4.6236 1.0112 -17.0502 -10.1521 6.2905 -8.6258 -4.5442 1.9915 8.1000 0.0000 0.0000 14.8257 -6.2797 1.7111 -10.8462 0.0000 -0.0000 -0.0000 -0.0000 0.0000 0.0000 -8.8097 -4.5245 6.2130 -19.0348 3.0895 -14.3051 -0.0000 0.0000 4.5587 3.3016 6.9965 6.2616 0.0000 0.0000 0.0000 0.0000 -0.0000 -0.0000 -9.7352 -3.5321 -7.6172 2.1016 0.0000 0.0000 0.0840 0.7831 25.6367 4.3162 0.0000 0.0000 -7.3202 -1.9364 9.1419 1.8283 0.0000 0.0000 -4.9867 3.3188 1.6533 -2.6794 0.0000 -0.0000
 -0.7545 -0.9022 25.0442 -7.2337 2.2355 160.4578 -0.4012 -1.2029 0.5087 -0.3170 -2.6783 0.0704 0.3294 2.7318 9.4953 -0.1182 0.9520 1.2381 -4.8874 5.1641 -11.9205 4.5422 0.9751 -16.9502 -10.1379 6.3680 -8.5456 -4.5727 1.8565 8.0895 0.0000 0.0000 14.9194 -6.2945 1.8208 -10.7790 0.0000 -0.0000 -0.0000 -0.0000 0.0000 -0.0000 -8.8183 -4.5079 6.2296 -18.9990 3.1382 -14.2044 -0.0000 0.0000 4.5521 3.4561 6.8186 6.2192 -0.0000 0.0000 -0.0000 -0.0000 -0.0000 0.0000 -9.7799 -3.5845 -7.6149 2.1062 0.0000 0.0000 0.0428 0.7787 25.7044 4.4390 0.0000 0.0000 -7.4090 -2.0017 9.1993 1.9417 0.0000 0.0000 -5.0134 3.3747 1.6551 -2.5637 0.0000 -0.0000
 -0.7345 -0.9067 25.0445 -7.2591 2.2755 160.4404 -0.4364 -1.3095 0.5134 -0.3339 -2.7398 0.0672 0.4217 2.8076 9.5760 -0.0702 1.0102 1.2101 -4.7996 5.4012 -11.9147 4.4673 0.9414 -16.8890 -10.1184 6.2943 -8.5502 -4.7847 1.9467 8.1705 0.0000 0.0000 14.9565 -5.9047 1.7435 -10.7187 0.0000 0.0000 0.0000 0.0000 -0.0000 -0.0000 -8.8669 -4.3731 6.3431 -19.0464 3.2043 -14.2855 -0.0000 0.0000 4.5863 3.5424 6.9219 6.0781 0.0000 0.0000 0.0000 0.0000 0.0000 0.0000 -9.7281 -3.6144 -7.5547 1.9437 0.0000 0.0000 0.1270 0.7029 25.7244 4.3777 0.0000 0.0000 -7.4234 -2.0209 9.2344 1.8961 0.0000 0.0000 -4.9937 3.3005 1.6699 -2.4798 0.0000 -0.0000
 -0.7218 -0.9070 25.0436 -7.3077 2.3025 160.3672 -0.4513 -1.3493 0.5161 -0.3312 -2.7736 0.0595 0.4599 2.8046 9.6074 -0.0724 1.0183 1.2052 -4.8612 5.5607 -11.8944 4.4602 0.8856 -16.8105 -10.1475 6.2080 -8.4876 -4.8689 2.0788 8.1906 0.0000 0.0000 15.2136 -5.1670 0.7951 -10.3205 0.0000 -0.0000 -0.0000 0.0000 -0.0000 -0.0000 -8.8744 -4.2079 6.3279 -18.8619 3.0652 -14.1260 -0.0000 0.0000 4.5382 3.6105 7.0151 6.0184 0.0000 0.0000 -0.0000 0.0000 -0.0000 0.0000 -9.7784 -3.6491 -7.4928 1.9549 0.0000 0.0000 0.1029 0.7332 25.7503 4.3738 0.0000 0.0000 -7.3926 -2.0411 9.1499 1.7721 0.0000 0.0000 -4.9731 3.3408 1.8085 -2.4545 0.0000 -0.0000
 -0.7170 -0.9066 25.0438 -7.3350 2.3047 160.4151 -0.3773 -1.3836 0.5027 -0.3146 -2.7541 0.0611 0.4747 2.7198 9.5719 -0.1013 1.0158 1.2012 -4.9355 5.6896 -11.8572 4.1428 0.9001 -16.7313 -9.9965 6.2843 -8.4044 -4.7825 2.1517 8.1920 0.0000 0.0000 15.2161 -4.8478 0.2767 -9.9467 0.0000 0.0000 -0.0000 0.0000 -0.0000 -0.0000 -8.8061 -4.2876 6.1292 -18.8243 3.2350 -13.7329 -0.0000 0.0000 4.4487 3.5947 6.9427 5.9983 -0.0000 -0.0000 -0.0000 -0.0000 -0.0000 -0.0000 -9.8602 -3.6602 -7.4483 2.0785 0.0000 0.0000 0.0040 0.7896 25.6468 4.4480 0.0000 0.0000 -7.4103 -2.0729 9.5775 1.7508 0.0000 0.0000 -4.8718 3.5687 1.3736 -2.5286 0.0000 -0.0000
 -0.7268 -0.9173 25.0417 -7.3286 2.3195 161.0389 -0.2068 -1.5741 0.4390 -0.2831 -2.6398 0.0601 0.5695 2.7202 9.2494 -0.1706 1.0468 1.0928 -5.1263 5.8628 -11.7425 3.9808 0.9293 -16.5462 -9.8730 6.1879 -8.3455 -5.5121 2.2708 7.9755 0.0000 0.0000 15.8502 -4.9155 0.8543 -9.6610 0.0000 0.0000 0.0000 -0.0000 -0.0000 0.0000 -8.3665 -4.1547 5.9364 -18.2815 3.3259 -13.5481 -0.0000 0.0000 4.0893 3.4208 6.2665 6.0040 -0.0000 -0.0000 0.0000 0.0000 -0.0000 -0.0000 -10.1879 -3.5597 -6.5481 2.7026 0.0000 0.0000 -0.4005 1.0561 24.0304 4.5609 0.0000 0.0000 -7.6408 -2.0221 10.1616 1.9909 0.0000 0.0000 -4.8320 3.8078 0.1116 -2.4616 0.0000 -0.0000
 -0.7527 -0.9359 25.0311 -6.9950 2.3827 163.0990 0.2120 -1.8729 0.2888 -0.1957 -2.3616 0.0314 0.9099 2.7190 8.1957 -0.2688 1.2147 0.7124 -5.2968 6.1554 -11.6470 3.8674 0.4646 -16.2687 -9.5981 5.6245 -8.0281 -6.1779 2.6590 7.1999 0.0000 0.0000 17.0094 -4.9842 2.1181 -8.9280 -0.0000 0.0000 -0.0000 -0.0000 -0.0000 0.0000 -8.0253 -3.4167 5.3911 -17.4380 3.4270 -13.3778 -0.0000 0.0000 3.6577 3.1523 5.1743 5.4995 0.0000 0.0000 -0.0000 0.0000 -0.0000 -0.0000 -10.8260 -3.1448 -3.9058 4.6863 0.0000 0.0000 -1.8904 2.3029 19.2759 4.9588 0.0000 0.0000 -7.5515 -1.5912 10.2405 1.7866 0.0000 0.0000 -4.3184 4.4892 -1.9796 -2.3062 0.0000 -0.0000
 -0.7385 -1.0043 25.0084 -6.5476 2.7196 165.9757 1.0302 -1.5261 0.0856 0.1760 -1.8251 -0.0140 0.8803 2.2783 6.5625 -0.6991 1.3292 0.2433 -5.6611 5.8934 -11.3397 4.1808 -0.2718 -15.9514 -8.9163 4.4485 -7.2967 -6.5558 2.3143 6.1534 0.0000 0.0000 18.3297 -4.6520 3.7169 -7.9664 0.0000 -0.0000 -0.0000 -0.0000 -0.0000 0.0000 -7.8202 -2.3298 4.2128 -16.7338 4.1665 -12.2639 -0.0000 0.0000 3.1637 2.0373 3.1349 4.6354 -0.0000 -0.0000 -0.0000 0.0000 -0.0000 -0.0000 -12.8971 -2.2959 -3.5208 9.5207 0.0000 0.0000 -4.3340 3.3654 15.9755 4.8995 0.0000 0.0000 -7.0821 -0.8068 9.1660 0.5535 0.0000 0.0000 -3.1316 5.0695 -3.7763 -2.3954 0.0000 -0.0000
 -0.6756 -1.1504 24.9759 -5.8741 3.3125 169.4645 2.3100 -0.9364 -0.1830 0.6390 -1.2378 -0.0489 1.2720 2.1291 4.5351 -1.2353 1.4221 -0.3210 -7.0048 5.0193 -10.0722 4.0562 -0.9555 -14.6515 -7.4547 3.1849 -6.4192 -6.4875 0.1424 4.8208 0.0000 0.0000 19.4021 -4.7531 4.7264 -6.9479 0.0000 -0.0000 0.0000 0.0000 -0.0000 -0.0000 -6.8656 -1.7803 2.8294 -15.4880 6.3569 -11.0036 -0.0000 0.0000 2.9453 1.4501 1.4953 3.7797 -0.0000 -0.0000 -0.0000 0.0000 0.0000 0.0000 -14.6328 -1.1538 -3.7331 13.8074 0.0000 0.0000 -6.1267 3.4270 12.8476 4.8484 0.0000 0.0000 -8.0420 -0.0455 9.4311 2.1886 0.0000 0.0000 -2.8431 5.3225 -7.3564 -2.7001 0.0000 -0.0000
